# xmcd
#
# Track frame offsets: 
#        150
#        15608
#        28866
#        56614
#        78900
#        108474
#        138808
#        160987
#        179512
#        192403
#        219599
#        239092
#
# Disc length: 3409 seconds
#
# Revision: 0
# Processed by: cddbd v1.5.2PL0 Copyright (c) Steve Scherf et al.
# Submitted via: ExactAudioCopy v1.0b1
#
DISCID=a70d4f0c
DTITLE=The Eli Yamin Band - I Feel So Glad
DYEAR=2011
DGENRE=Blues
TTITLE0=Hound Dog
TTITLE1=I Feel So Glad
TTITLE2=I Wish I Knew How It Would Feel To Be Free
TTITLE3=Fishin' Blues
TTITLE4=A Healing Song
TTITLE5=After Hours
TTITLE6=Rwandan Child
TTITLE7=Night Time
TTITLE8=John Henry
TTITLE9=Trouble Of The World
TTITLE10=Rabo De Nube
TTITLE11=Shake Sugaree
EXTD=
EXTT0=
EXTT1=
EXTT2=
EXTT3=
EXTT4=
EXTT5=
EXTT6=
EXTT7=
EXTT8=
EXTT9=
EXTT10=
EXTT11=
PLAYORDER=
